<svg version="1" xmlns="http://www.w3.org/2000/svg" width="346.667" height="346.667" viewBox="0 0 260.000000 260.000000"><path d="M112.7 25c-41.9 7.6-75 41.2-81.7 83.3-2 12-.8 32 2.4 43 6.4 21.4 20.6 41.8 38.2 54.3 8.1 5.8 23.1 12.9 32.9 15.6 6.8 1.8 10.6 2.2 25.5 2.2 14.8 0 18.7-.4 25.2-2.2 29.1-8 51.7-26.7 64.9-53.7 6.6-13.6 9-23.1 9.6-38.8.8-19.4-1.9-33.2-9.9-49.2-12.6-25.4-34.8-43.8-62.4-52.1-7.6-2.2-11.2-2.7-24.4-3-8.5-.1-17.7.1-20.3.6zM141 35.5c39.8 3.3 73.8 38.1 77.8 79.5 4 40.3-18.7 77.3-56.7 92.6-9.3 3.8-19.5 5.5-32.1 5.5-25.6 0-44.9-8-63-26.1-17.7-17.7-26.1-37.8-26.1-62.6-.1-35.7 18.1-64.8 50.8-81.3 10.5-5.2 30.8-9.5 40.3-8.5 1.4.2 5.4.6 9 .9z"/><path d="M97.2 76.7c.2 1.2 1.5 2 3.8 2.3 5.9.8 6 1.5 6 40.7 0 20.3-.4 36.2-1 37.7-.7 2-1.9 2.7-5 3.2-2.4.4-4 1.2-4 2 0 1.2 5.6 1.4 32.5 1.4H162v-12.5c0-11.6-.1-12.5-1.9-12.5-1.5 0-2 1-2.6 4.7-1.1 7.5-3.9 12.9-7.7 14.9-2.6 1.4-5.8 1.8-15 1.8-16.1.1-15.2 1.3-15.6-21.6l-.4-18 6.6.4c7.4.4 11.1 2.9 12 7.9.4 1.6.9 4.2 1.2 5.9.3 1.7 1.2 3 2 3 1.2 0 1.4-3.2 1.4-18.6 0-17-.1-18.5-1.7-18.2-1.2.2-2 1.7-2.5 4.6-1.6 9.4-4.7 12.2-13.6 12.2h-5.4l.4-18.1c.4-22.5-.7-21.2 16.6-20.7l12.4.3 2.8 3.1c1.7 2 3.1 4.9 3.5 7.5 1 6.6 1.5 7.9 3.1 7.9 1.1 0 1.4-1.6 1.4-6.9 0-3.7.3-8.9.6-11.5l.7-4.6h-31.7c-29.7 0-31.7.1-31.4 1.7z"/></svg>